<svg id="Layer_1" data-name="Layer 1" xmlns="http://www.w3.org/2000/svg" viewBox="0 0 1496 445"><defs><style>.cls-1{fill:#387ee5;stroke:#387ee5;}.cls-1,.cls-2{stroke-miterlimit:10;stroke-width:3px;}.cls-2,.cls-3{fill:#9ba6b0;}.cls-2{stroke:#9ba6b0;}.cls-4{fill:#3174ee;}</style></defs><title>Artboard 3 copy 3</title><rect class="cls-1" x="232.52" y="56.75" width="4.63" height="57.83"/><path class="cls-1" d="M176.53,138.24H157.12l-3,0-8-.12-11.43-.17-13.34-.2-13.72-.2-12.58-.19-9.91-.15-3.55,0c-1.21,0-3-.45-3.58,1s.29,3.32,1.2,4.34l1.43,1.62,4.64,5.22,6.57,7.39,8,9,8.83,9.92,9.16,10.31,9,10.08c7.46,8.16,14.47,16.72,22.13,24.69l0,0c1.38,1.43,2.76,2.86,4.12,4.32H265.73Zm-91.72,3.55,72.28,1.08h17.56l37.51,36.48-57.3,41.25ZM216,183.07l38.34,37.3H163.1Z"/><path class="cls-1" d="M159.79,52.63a4.71,4.71,0,0,1-1,.08h-.51L78.73,137a4.13,4.13,0,0,1-.33.58c-.06.19-.13.39-.17.58l3,2.88,74.54-78.92-3.35,159.41,4.63.09,3.54-168.95-.19,0A2.83,2.83,0,0,1,159.79,52.63Z"/><rect class="cls-1" x="135.11" y="92.73" width="4.63" height="54.01" transform="translate(-44.71 126.73) rotate(-43.26)"/><path class="cls-1" d="M158.67,52.62l-.33.34-.15.31a6.44,6.44,0,0,1-.75,1,3.07,3.07,0,0,1-.26.25l-.1.07,0,2.72,276.05-4.53L369,110.48H207.13l-33,28.32,3,3.51,31.74-27.2h162l74.66-67.19Z"/><path class="cls-1" d="M367.6,51.48v56L307.29,50.71h-2.9l-69.91,59.14L160.77,55.42,158,59.14l74.77,55.22a2.6,2.6,0,0,1,.4,0l.42,0a1.8,1.8,0,0,0,.22-.06,3.65,3.65,0,0,1,1-.17l.93.12a4.89,4.89,0,0,1,.46.19l69.48-58.76,61.59,57.92.21,0c1.2-.09,2.41-.16,3.61-.26l1.07-.09V51.48Z"/><path class="cls-2" d="M378.07,188.37c0-.24,4.34-.49,4.3-.73l-74.11,46.2,2.6,3.88,72.07-45.82C382,190.84,378.27,189.58,378.07,188.37Z"/><path class="cls-2" d="M388.24,187.85c-1.47.76-3,1.46-4.54,2.19l.9,87,4.62-.05-.92-89.17Z"/><path class="cls-2" d="M133.88,283.93l2,75.3,4.63-.12-2.08-77C136.92,282.69,135.38,283.3,133.88,283.93Z"/><path class="cls-3" d="M208.2,363.59h3.37l79.87-87.2c-5.16-.06-3.71-.21-8.87-.22L210,355.58l-70.25-79.4c-2.43,2.18-.92,1.55-3.74,3.39a8,8,0,0,1-1.63.81l73.81,83.22Z"/><polygon class="cls-2" points="291.58 359.43 286.88 361.34 350.38 275.63 354.04 278.46 291.58 359.43"/><path class="cls-2" d="M388,359.55l1.19-81.31-4.62-.07L383.51,352l-54.28-45-3,3.56,59.48,49.34C386.51,359.75,387.27,359.65,388,359.55Z"/><rect class="cls-2" x="404.12" y="270.77" width="4.63" height="54.19" transform="translate(-93.45 361.35) rotate(-43.47)"/><path class="cls-2" d="M472.64,277.86l-84.76,84.78L50.69,365l85.38-90.27,208.3,1.46,4.95,4.65-211.26-1.48-.39.42-76.16,80.5L385.94,358l76.39-76.38L351,280.84l2.38-2.57-2.17-2,114.58.78-80.44-87.86H258.57l92.6,87.08-6.8-.05-97.51-91.68H387.35s.09.12.12.14c.16.19.32.35.48.53l.86.93c.39.41.78.85,1.18,1.27s1,1.09,1.48,1.64,1.18,1.3,1.78,1.95,1.34,1.48,2,2.22l2.29,2.49,2.49,2.73,2.71,3,2.89,3.16,3.06,3.34c1.06,1.15,2.1,2.31,3.17,3.47s2.19,2.4,3.3,3.61,2.25,2.45,3.38,3.7,2.31,2.5,3.47,3.77,2.34,2.54,3.49,3.84,2.36,2.57,3.54,3.86,2.36,2.57,3.54,3.86l3.52,3.84q1.77,1.92,3.49,3.82c1.14,1.25,2.29,2.48,3.43,3.73s2.22,2.45,3.35,3.65,2.15,2.36,3.24,3.54,2.06,2.27,3.1,3.4l3,3.24c1,1,1.87,2,2.8,3.05s1.73,1.9,2.61,2.85l2.39,2.64c.74.78,1.45,1.57,2.17,2.33s1.27,1.39,1.9,2.08,1.09,1.21,1.62,1.79l1.34,1.45c.26.3.54.58.8.87s.49.49.73.74a3.34,3.34,0,0,1,.35.4A.77.77,0,0,1,472.64,277.86Z"/><path class="cls-3" d="M519.79,350.8a14.4,14.4,0,0,1-5.07-2.84l1.92-2.45a12.85,12.85,0,0,0,4.22,2.43,15.27,15.27,0,0,0,5.21.86,10.3,10.3,0,0,0,5.64-1.33,4.17,4.17,0,0,0,2.07-3.68,3.28,3.28,0,0,0-.76-2.17,5.78,5.78,0,0,0-2.52-1.52,24.46,24.46,0,0,0-4.87-1q-4.64-.58-6.84-2.41a5.75,5.75,0,0,1-2.19-4.61,6.13,6.13,0,0,1,1.22-3.8,7.78,7.78,0,0,1,3.41-2.49,13.56,13.56,0,0,1,5-.87,18.61,18.61,0,0,1,5.25.75,10.74,10.74,0,0,1,4.11,2.1l-1.81,2.48a9,9,0,0,0-3.26-1.68,14.56,14.56,0,0,0-4.22-.62,8.78,8.78,0,0,0-4.64,1.06,3.36,3.36,0,0,0-1.73,3,2.81,2.81,0,0,0,.64,1.84,4.89,4.89,0,0,0,2.16,1.34,19,19,0,0,0,4.09.84c3.51.41,6.1,1.27,7.77,2.56a6.13,6.13,0,0,1,2.51,5.08,7,7,0,0,1-1.35,4.22,8.63,8.63,0,0,1-3.81,2.88,15,15,0,0,1-5.75,1A20,20,0,0,1,519.79,350.8Z"/><path class="cls-3" d="M566.32,328.4h-9.18v-3h21.71v3h-9.18v23h-3.35Z"/><path class="cls-3" d="M601,325.36h11.43q4.71,0,7.33,2.09a7.92,7.92,0,0,1,0,11.77q-2.62,2.08-7.33,2.09H609.1v-1.5l14,11.59h-5l-13.82-11.59V351.4H601Zm16.31,11.69a4.87,4.87,0,0,0,0-7.41,8.5,8.5,0,0,0-5-1.24h-7.92v9.91h7.92A8.42,8.42,0,0,0,617.3,337.05Z"/><path class="cls-3" d="M648.09,348.8q-2.8-3-2.8-8.59V325.36h3.35v14.89q0,4.2,1.9,6.38a8.36,8.36,0,0,0,11.24,0c1.26-1.45,1.9-3.58,1.9-6.38V325.36H667v14.85q0,5.6-2.8,8.61t-8.07,3Q650.9,351.84,648.09,348.8Z"/><path class="cls-3" d="M696.57,350.08a12.37,12.37,0,0,1-4.65-4.84,15,15,0,0,1,0-13.77,12.31,12.31,0,0,1,4.63-4.81,12.76,12.76,0,0,1,6.63-1.73,12.59,12.59,0,0,1,7,2,10.86,10.86,0,0,1,4.35,5.27l-2.87,1.2a7.89,7.89,0,0,0-3.24-4,9.49,9.49,0,0,0-5.2-1.45,9.28,9.28,0,0,0-5,1.35,9.47,9.47,0,0,0-3.43,3.72,11.31,11.31,0,0,0-1.23,5.32,11.52,11.52,0,0,0,1.23,5.35,9.34,9.34,0,0,0,3.45,3.75,10.09,10.09,0,0,0,10.3-.13,8,8,0,0,0,3.26-3.89l2.88,1.21a10.74,10.74,0,0,1-4.39,5.21,13.57,13.57,0,0,1-13.76.23Z"/><path class="cls-3" d="M743.17,328.4H734v-3H755.7v3h-9.18v23h-3.35Z"/><path class="cls-3" d="M780.53,348.8c-1.86-2-2.8-4.88-2.8-8.59V325.36h3.36v14.89q0,4.2,1.89,6.38a8.36,8.36,0,0,0,11.24,0q1.9-2.17,1.9-6.38V325.36h3.36v14.85q0,5.6-2.81,8.61t-8.07,3Q783.34,351.84,780.53,348.8Z"/><path class="cls-3" d="M824.17,325.36h11.42c3.14,0,5.59.7,7.33,2.09a7.92,7.92,0,0,1,0,11.77c-1.74,1.39-4.19,2.09-7.33,2.09h-3.32v-1.5l14,11.59h-5l-13.82-11.59V351.4h-3.35Zm16.3,11.69a4.85,4.85,0,0,0,0-7.41,8.5,8.5,0,0,0-5-1.24h-7.92v9.91h7.92A8.42,8.42,0,0,0,840.47,337.05Z"/><path class="cls-3" d="M878.3,325.36h1.84l11.61,26h-3.61l-2.8-6.18H873.1l-2.8,6.18h-3.61Zm5.75,16.9-4.83-11-4.83,11Z"/><path class="cls-3" d="M917.25,325.36v23h14.82v3H913.9v-26Z"/><path class="cls-3" d="M980.93,325.36h3.36v26h-3.36Z"/><path class="cls-3" d="M1009.34,325.36h1.7l16.69,19.17V325.36h3.36v26h-1.7l-16.69-19.16V351.4h-3.36Z"/><path class="cls-3" d="M1062.41,328.4h-9.17v-3h21.7v3h-9.18v23h-3.35Z"/><path class="cls-3" d="M1097.09,325.36h18.5v3h-15.15v7.72h14.48v3h-14.48v9.22h15.15v3h-18.5Z"/><path class="cls-3" d="M1142.19,325.36v23H1157v3h-18.17v-26Z"/><path class="cls-3" d="M1182.4,325.36v23h14.81v3h-18.16v-26Z"/><path class="cls-3" d="M1219.25,325.36h3.36v26h-3.36Z"/><path class="cls-3" d="M1252.29,350.14a11.86,11.86,0,0,1-4.66-4.76,14.19,14.19,0,0,1-1.66-6.92,14.34,14.34,0,0,1,1.68-7,12.09,12.09,0,0,1,4.68-4.83,13.36,13.36,0,0,1,6.83-1.73,13.81,13.81,0,0,1,6.73,1.61,10.36,10.36,0,0,1,4.36,4.2l-2.83,1.5a7.65,7.65,0,0,0-3.26-3.13,10.51,10.51,0,0,0-5-1.15,10,10,0,0,0-5.2,1.34,8.92,8.92,0,0,0-3.46,3.71,11.71,11.71,0,0,0-1.22,5.41,11.37,11.37,0,0,0,1.24,5.39,9,9,0,0,0,3.5,3.68,11,11,0,0,0,9.82.29,8.22,8.22,0,0,0,3.26-2.93,9.8,9.8,0,0,0,1.49-4.42h-9v-3H1272v1.1a15.6,15.6,0,0,1-.94,5.54,11.73,11.73,0,0,1-2.71,4.26,11.54,11.54,0,0,1-4,2.59,13.94,13.94,0,0,1-5.11.92A13.72,13.72,0,0,1,1252.29,350.14Z"/><path class="cls-3" d="M1295.06,325.36h18.5v3h-15.15v7.72h14.48v3h-14.48v9.22h15.15v3h-18.5Z"/><path class="cls-3" d="M1336.81,325.36h1.69l16.7,19.17V325.36h3.35v26h-1.69l-16.7-19.16V351.4h-3.35Z"/><path class="cls-3" d="M1388.24,350.08a12.37,12.37,0,0,1-4.65-4.84,15,15,0,0,1,0-13.77,12.31,12.31,0,0,1,4.63-4.81,12.76,12.76,0,0,1,6.63-1.73,12.59,12.59,0,0,1,7,2,10.86,10.86,0,0,1,4.35,5.27l-2.87,1.2a7.86,7.86,0,0,0-3.25-4,9.44,9.44,0,0,0-5.19-1.45,9.25,9.25,0,0,0-5,1.35,9.47,9.47,0,0,0-3.43,3.72,11.31,11.31,0,0,0-1.23,5.32,11.52,11.52,0,0,0,1.23,5.35,9.34,9.34,0,0,0,3.45,3.75,10.09,10.09,0,0,0,10.3-.13,8.1,8.1,0,0,0,3.26-3.89l2.88,1.21a10.74,10.74,0,0,1-4.39,5.21,13,13,0,0,1-7.08,2A12.84,12.84,0,0,1,1388.24,350.08Z"/><path class="cls-3" d="M1428.75,325.36h18.5v3h-15.14v7.72h14.48v3h-14.48v9.22h15.14v3h-18.5Z"/><polygon class="cls-4" points="1203.66 280.75 1277.06 99.46 1318.35 99.46 1391.76 280.75 1349.32 279.58 1335.56 240.07 1275.92 240.07 1289.68 212.18 1328.67 209.86 1298.86 142.46 1243.8 279.58 1203.66 280.75"/><rect class="cls-4" x="1412.4" y="98.35" width="36.7" height="183.51"/><path class="cls-3" d="M687.54,117H722v36.7l.21,17.17c.36,17.49.32,35,.18,52.45,0,5.74,0,11.48.06,17.23,0,3.62-.08,7.38.93,10.89a9.85,9.85,0,0,0,5,6.19c2.25,1.06,4.91,1,7.34.83,2.82-.22,5.67-.28,8.51-.35,6-.14,12-.22,17.9,0a56.39,56.39,0,0,1,0,6.88v23q-12.3.18-24.6.08c-7.9-.07-16.21.42-24-.8-11.2-1.76-19.7-10.18-23.16-20.76-2.5-7.62-1.63-15.53-1.69-23.4l-.11-12.38-.3-34.88-.33-38.45-.25-30.15Z"/><rect class="cls-3" x="664.6" y="151.36" width="100.93" height="32.11"/><rect class="cls-3" x="786.17" y="157.3" width="34.41" height="130.75"/><path class="cls-3" d="M875.64,155s-34.41-7.63-55.06,18v30.86s25.24-25.9,55.06-16.72Z"/><path class="cls-3" d="M891.69,148.68h36.7v82.58A25.1,25.1,0,0,0,932,244.15c4.38,7,12.48,7.5,20,7.88a99.9,99.9,0,0,0,22.38-1.38c5.23-.92,9-3.66,11-8.68,3.62-8.72,1.47-18.73,1.47-27.85V149.83h36.7v37.63c0,14-.23,28.11-.17,42.17.06,12.65,0,26.15-5.56,37.8-6.2,12.94-17.87,19.27-31.81,20.29-1.4.11-2.81.17-4.21.22-10.33.32-20.66-.14-31-.43-9.6-.27-19.65.58-29.11-1.36-13.84-2.84-23.36-14.77-27.11-27.86-2.89-10.09-1.88-20.89-2-31.25L892,171.93C892,170.63,891.74,148.68,891.69,148.68Z"/><polygon class="cls-3" points="1043.09 151.56 1082.08 151.56 1111.9 192.85 1139.43 151.56 1180.72 151.56 1134.84 218.09 1185.31 284.61 1141.72 286.9 1113.05 242.17 1080.94 288.05 1039.65 285.76 1092.41 216.94 1043.09 151.56"/><path class="cls-3" d="M638.67,140c-11.43-1.9-22.9-3.61-34.42-4.89-11.84-1.32-24.72-4-36.58-1.58-6.13,1.25-11.9,4.67-14.64,10.48a17.32,17.32,0,0,0,3.51,19.59c6.35,6.4,14.48,8.48,23.33,10.59,25.32,6,58.34,6.86,71.24,30.86,7.35,13.66,8.08,29.69,3.83,44.43-5.57,19.29-23,29.78-41.5,34.34-21.86,5.39-44.89,5.27-67.06,1.9a162,162,0,0,1-20.52-4.55c-1.66-.48-16.92-4.44-16.5-6.41,0,0,8.09-35.59,8.17-35.93-.39,1.81,17,6.71,18.52,7.14a160.28,160.28,0,0,0,41.61,6.31c12.86.12,32.69-1.88,39.82-14.44a16.53,16.53,0,0,0,1.14-13.62c-3.33-9.13-13.34-12-22-13.47-13.92-2.41-28.43-4-41.78-8.81-12.75-4.63-24.59-12.53-32.41-23.77-7.32-10.54-10.82-23.59-8.47-36.33.18-1,.4-2,.65-3.05a58.06,58.06,0,0,1,26.87-35.45,68.17,68.17,0,0,1,33.68-9c11.7-.09,23.25,2.37,34.75,4.15,6.67,1,13.49,1.93,20,3.51,5.41,1.31,11.28,2.68,15.42,6.66l.09.09Z"/></svg>