<svg id="Layer_1" data-name="Layer 1" xmlns="http://www.w3.org/2000/svg" viewBox="0 0 1496 445"><defs><style>.cls-1{fill:#387ee5;stroke:#387ee5;}.cls-1,.cls-2{stroke-miterlimit:10;stroke-width:3px;}.cls-2,.cls-3{fill:#0e1520;}.cls-2{stroke:#0e1520;}.cls-4{fill:#3174ee;}</style></defs><title>Artboard 3 copy 3</title><rect class="cls-1" x="232.52" y="56.75" width="4.63" height="57.83"/><path class="cls-1" d="M176.53,138.24H157.12l-3,0-8-.12-11.43-.17-13.34-.2-13.72-.2-12.58-.19-9.91-.15-3.55,0c-1.21,0-3-.45-3.58,1s.29,3.32,1.2,4.34l1.43,1.62,4.64,5.22,6.57,7.39,8,9,8.83,9.92,9.16,10.31,9,10.08c7.46,8.16,14.47,16.72,22.13,24.69l0,0c1.38,1.43,2.76,2.86,4.12,4.32H265.73Zm-91.72,3.55,72.28,1.08h17.56l37.51,36.48-57.3,41.25ZM216,183.07l38.34,37.3H163.1Z"/><path class="cls-1" d="M159.79,52.63a4.71,4.71,0,0,1-1,.08h-.51L78.73,137a4.13,4.13,0,0,1-.33.58c-.06.19-.13.39-.17.58l3,2.88,74.54-78.92-3.35,159.41,4.63.09,3.54-168.95-.19,0A2.83,2.83,0,0,1,159.79,52.63Z"/><rect class="cls-1" x="135.11" y="92.73" width="4.63" height="54.01" transform="translate(-44.71 126.73) rotate(-43.26)"/><path class="cls-1" d="M158.67,52.62l-.33.34-.15.31a6.44,6.44,0,0,1-.75,1,3.07,3.07,0,0,1-.26.25l-.1.07,0,2.72,276.05-4.53L369,110.48H207.13l-33,28.32,3,3.51,31.74-27.2h162l74.66-67.19Z"/><path class="cls-1" d="M367.6,51.48v56L307.29,50.71h-2.9l-69.91,59.14L160.77,55.42,158,59.14l74.77,55.22a2.6,2.6,0,0,1,.4,0l.42,0a1.8,1.8,0,0,0,.22-.06,3.65,3.65,0,0,1,1-.17l.93.12a4.89,4.89,0,0,1,.46.19l69.48-58.76,61.59,57.92.21,0c1.2-.09,2.41-.16,3.61-.26l1.07-.09V51.48Z"/><path class="cls-2" d="M339.41,274.57h20.94l3.24.05,8.61.13,12.32.18,14.39.22,14.81.22,13.57.2,10.68.16,3.83.06c1.31,0,3.26.48,3.86-1.09s-.3-3.58-1.29-4.69l-1.54-1.74-5-5.63-7.09-8L422.15,245l-9.52-10.71-9.88-11.12-9.67-10.87c-8-8.8-15.61-18-23.87-26.63l0,0c-1.49-1.54-3-3.08-4.45-4.65H243.2Zm98.94-3.82-78-1.17H341.44L301,230.24l61.8-44.5Zm-141.5-44.53L255.49,186H353.9Z"/><path class="cls-2" d="M357.48,366.93a4.74,4.74,0,0,1,1.07-.1h.55L444.91,276a5.67,5.67,0,0,1,.36-.63c.06-.21.13-.41.18-.62l-3.28-3.11-80.4,85.13,3.61-172-5-.1-3.82,182.24.21,0A2.75,2.75,0,0,1,357.48,366.93Z"/><rect class="cls-2" x="379.1" y="265.41" width="4.99" height="58.25" transform="matrix(0.73, -0.69, 0.69, 0.73, -98.15, 341.59)"/><path class="cls-2" d="M358.68,366.93l.36-.37a2.59,2.59,0,0,1,.17-.33,6.25,6.25,0,0,1,.8-1,2.37,2.37,0,0,1,.28-.27l.11-.08,0-2.93L62.59,366.79l69.19-62.27H306.42L342.05,274l-3.25-3.79-34.23,29.35H129.86L49.34,372Z"/><path class="cls-2" d="M133.32,368.17V307.79L198.38,369h3.12l75.41-63.79,79.5,58.72,3-4-80.66-59.57a2,2,0,0,1-.43,0l-.45,0-.24.06a3.51,3.51,0,0,1-1.12.19l-1-.13a4.25,4.25,0,0,1-.49-.21l-75,63.39-66.42-62.48-.23,0c-1.3.1-2.6.17-3.9.29-.38,0-.77.05-1.15.09v66.56Z"/><path class="cls-3" d="M519.79,350.8a14.4,14.4,0,0,1-5.07-2.84l1.92-2.45a12.85,12.85,0,0,0,4.22,2.43,15.27,15.27,0,0,0,5.21.86,10.3,10.3,0,0,0,5.64-1.33,4.17,4.17,0,0,0,2.07-3.68,3.28,3.28,0,0,0-.76-2.17,5.78,5.78,0,0,0-2.52-1.52,24.46,24.46,0,0,0-4.87-1q-4.64-.58-6.84-2.41a5.75,5.75,0,0,1-2.19-4.61,6.13,6.13,0,0,1,1.22-3.8,7.78,7.78,0,0,1,3.41-2.49,13.56,13.56,0,0,1,5-.87,18.61,18.61,0,0,1,5.25.75,10.74,10.74,0,0,1,4.11,2.1l-1.81,2.48a9,9,0,0,0-3.26-1.68,14.56,14.56,0,0,0-4.22-.62,8.78,8.78,0,0,0-4.64,1.06,3.36,3.36,0,0,0-1.73,3,2.81,2.81,0,0,0,.64,1.84,4.89,4.89,0,0,0,2.16,1.34,19,19,0,0,0,4.09.84c3.51.41,6.1,1.27,7.77,2.56a6.13,6.13,0,0,1,2.51,5.08,7,7,0,0,1-1.35,4.22,8.63,8.63,0,0,1-3.81,2.88,15,15,0,0,1-5.75,1A20,20,0,0,1,519.79,350.8Z"/><path class="cls-3" d="M566.32,328.4h-9.18v-3h21.71v3h-9.18v23h-3.35Z"/><path class="cls-3" d="M601,325.36h11.43q4.71,0,7.33,2.09a7.92,7.92,0,0,1,0,11.77q-2.62,2.08-7.33,2.09H609.1v-1.5l14,11.59h-5l-13.82-11.59V351.4H601Zm16.31,11.69a4.87,4.87,0,0,0,0-7.41,8.5,8.5,0,0,0-5-1.24h-7.92v9.91h7.92A8.42,8.42,0,0,0,617.3,337.05Z"/><path class="cls-3" d="M648.09,348.8q-2.8-3-2.8-8.59V325.36h3.35v14.89q0,4.2,1.9,6.38a8.36,8.36,0,0,0,11.24,0c1.26-1.45,1.9-3.58,1.9-6.38V325.36H667v14.85q0,5.6-2.8,8.61t-8.07,3Q650.9,351.84,648.09,348.8Z"/><path class="cls-3" d="M696.57,350.08a12.37,12.37,0,0,1-4.65-4.84,15,15,0,0,1,0-13.77,12.31,12.31,0,0,1,4.63-4.81,12.76,12.76,0,0,1,6.63-1.73,12.59,12.59,0,0,1,7,2,10.86,10.86,0,0,1,4.35,5.27l-2.87,1.2a7.89,7.89,0,0,0-3.24-4,9.49,9.49,0,0,0-5.2-1.45,9.28,9.28,0,0,0-5,1.35,9.47,9.47,0,0,0-3.43,3.72,11.31,11.31,0,0,0-1.23,5.32,11.52,11.52,0,0,0,1.23,5.35,9.34,9.34,0,0,0,3.45,3.75,10.09,10.09,0,0,0,10.3-.13,8,8,0,0,0,3.26-3.89l2.88,1.21a10.74,10.74,0,0,1-4.39,5.21,13.57,13.57,0,0,1-13.76.23Z"/><path class="cls-3" d="M743.17,328.4H734v-3H755.7v3h-9.18v23h-3.35Z"/><path class="cls-3" d="M780.53,348.8c-1.86-2-2.8-4.88-2.8-8.59V325.36h3.36v14.89q0,4.2,1.89,6.38a8.36,8.36,0,0,0,11.24,0q1.9-2.17,1.9-6.38V325.36h3.36v14.85q0,5.6-2.81,8.61t-8.07,3Q783.34,351.84,780.53,348.8Z"/><path class="cls-3" d="M824.17,325.36h11.42c3.14,0,5.59.7,7.33,2.09a7.92,7.92,0,0,1,0,11.77c-1.74,1.39-4.19,2.09-7.33,2.09h-3.32v-1.5l14,11.59h-5l-13.82-11.59V351.4h-3.35Zm16.3,11.69a4.85,4.85,0,0,0,0-7.41,8.5,8.5,0,0,0-5-1.24h-7.92v9.91h7.92A8.42,8.42,0,0,0,840.47,337.05Z"/><path class="cls-3" d="M878.3,325.36h1.84l11.61,26h-3.61l-2.8-6.18H873.1l-2.8,6.18h-3.61Zm5.75,16.9-4.83-11-4.83,11Z"/><path class="cls-3" d="M917.25,325.36v23h14.82v3H913.9v-26Z"/><path class="cls-3" d="M980.93,325.36h3.36v26h-3.36Z"/><path class="cls-3" d="M1009.34,325.36h1.7l16.69,19.17V325.36h3.36v26h-1.7l-16.69-19.16V351.4h-3.36Z"/><path class="cls-3" d="M1062.41,328.4h-9.17v-3h21.7v3h-9.18v23h-3.35Z"/><path class="cls-3" d="M1097.09,325.36h18.5v3h-15.15v7.72h14.48v3h-14.48v9.22h15.15v3h-18.5Z"/><path class="cls-3" d="M1142.19,325.36v23H1157v3h-18.17v-26Z"/><path class="cls-3" d="M1182.4,325.36v23h14.81v3h-18.16v-26Z"/><path class="cls-3" d="M1219.25,325.36h3.36v26h-3.36Z"/><path class="cls-3" d="M1252.29,350.14a11.86,11.86,0,0,1-4.66-4.76,14.19,14.19,0,0,1-1.66-6.92,14.34,14.34,0,0,1,1.68-7,12.09,12.09,0,0,1,4.68-4.83,13.36,13.36,0,0,1,6.83-1.73,13.81,13.81,0,0,1,6.73,1.61,10.36,10.36,0,0,1,4.36,4.2l-2.83,1.5a7.65,7.65,0,0,0-3.26-3.13,10.51,10.51,0,0,0-5-1.15,10,10,0,0,0-5.2,1.34,8.92,8.92,0,0,0-3.46,3.71,11.71,11.71,0,0,0-1.22,5.41,11.37,11.37,0,0,0,1.24,5.39,9,9,0,0,0,3.5,3.68,11,11,0,0,0,9.82.29,8.22,8.22,0,0,0,3.26-2.93,9.8,9.8,0,0,0,1.49-4.42h-9v-3H1272v1.1a15.6,15.6,0,0,1-.94,5.54,11.73,11.73,0,0,1-2.71,4.26,11.54,11.54,0,0,1-4,2.59,13.94,13.94,0,0,1-5.11.92A13.72,13.72,0,0,1,1252.29,350.14Z"/><path class="cls-3" d="M1295.06,325.36h18.5v3h-15.15v7.72h14.48v3h-14.48v9.22h15.15v3h-18.5Z"/><path class="cls-3" d="M1336.81,325.36h1.69l16.7,19.17V325.36h3.35v26h-1.69l-16.7-19.16V351.4h-3.35Z"/><path class="cls-3" d="M1388.24,350.08a12.37,12.37,0,0,1-4.65-4.84,15,15,0,0,1,0-13.77,12.31,12.31,0,0,1,4.63-4.81,12.76,12.76,0,0,1,6.63-1.73,12.59,12.59,0,0,1,7,2,10.86,10.86,0,0,1,4.35,5.27l-2.87,1.2a7.86,7.86,0,0,0-3.25-4,9.44,9.44,0,0,0-5.19-1.45,9.25,9.25,0,0,0-5,1.35,9.47,9.47,0,0,0-3.43,3.72,11.31,11.31,0,0,0-1.23,5.32,11.52,11.52,0,0,0,1.23,5.35,9.34,9.34,0,0,0,3.45,3.75,10.09,10.09,0,0,0,10.3-.13,8.1,8.1,0,0,0,3.26-3.89l2.88,1.21a10.74,10.74,0,0,1-4.39,5.21,13,13,0,0,1-7.08,2A12.84,12.84,0,0,1,1388.24,350.08Z"/><path class="cls-3" d="M1428.75,325.36h18.5v3h-15.14v7.72h14.48v3h-14.48v9.22h15.14v3h-18.5Z"/><polygon class="cls-4" points="1203.66 280.75 1277.06 99.46 1318.35 99.46 1391.76 280.75 1349.32 279.58 1335.56 240.07 1275.92 240.07 1289.68 212.18 1328.67 209.86 1298.86 142.46 1243.8 279.58 1203.66 280.75"/><rect class="cls-4" x="1412.4" y="98.35" width="36.7" height="183.51"/><path class="cls-3" d="M686.54,117H721v36.7l.21,17.17c.36,17.49.32,35,.18,52.45,0,5.74,0,11.48.06,17.23,0,3.62-.08,7.38.93,10.89a9.85,9.85,0,0,0,5,6.19c2.25,1.06,4.91,1,7.34.83,2.82-.22,5.67-.28,8.51-.35,6-.14,12-.22,17.9,0a56.39,56.39,0,0,1,0,6.88v23q-12.3.18-24.6.08c-7.9-.07-16.21.42-24-.8-11.2-1.76-19.7-10.18-23.16-20.76-2.5-7.62-1.63-15.53-1.69-23.4l-.11-12.38-.3-34.88-.33-38.45-.25-30.15Z"/><rect class="cls-3" x="663.6" y="151.36" width="100.93" height="32.11"/><rect class="cls-3" x="785.17" y="157.3" width="34.41" height="130.75"/><path class="cls-3" d="M874.64,155s-34.41-7.63-55.06,18v30.86s25.24-25.9,55.06-16.72Z"/><path class="cls-3" d="M890.69,148.68h36.7v82.58A25.1,25.1,0,0,0,931,244.15c4.38,7,12.48,7.5,20,7.88a99.9,99.9,0,0,0,22.38-1.38c5.23-.92,9-3.66,11-8.68,3.62-8.72,1.47-18.73,1.47-27.85V149.83h36.7v37.63c0,14-.23,28.11-.17,42.17.06,12.65,0,26.15-5.56,37.8-6.2,12.94-17.87,19.27-31.81,20.29-1.4.11-2.81.17-4.21.22-10.33.32-20.66-.14-31-.43-9.6-.27-19.65.58-29.11-1.36-13.84-2.84-23.36-14.77-27.11-27.86-2.89-10.09-1.88-20.89-2-31.25L891,171.93C891,170.63,890.74,148.68,890.69,148.68Z"/><polygon class="cls-3" points="1042.09 151.56 1081.08 151.56 1110.9 192.85 1138.43 151.56 1179.72 151.56 1133.84 218.09 1184.31 284.61 1140.72 286.9 1112.05 242.17 1079.94 288.05 1038.65 285.76 1091.41 216.94 1042.09 151.56"/><path class="cls-3" d="M637.67,140c-11.43-1.9-22.9-3.61-34.42-4.89-11.84-1.32-24.72-4-36.58-1.58-6.13,1.25-11.9,4.67-14.64,10.48a17.32,17.32,0,0,0,3.51,19.59c6.35,6.4,14.48,8.48,23.33,10.59,25.32,6,58.34,6.86,71.24,30.86,7.35,13.66,8.08,29.69,3.83,44.43-5.57,19.29-23,29.78-41.5,34.34-21.86,5.39-44.89,5.27-67.06,1.9a162,162,0,0,1-20.52-4.55c-1.66-.48-16.92-4.44-16.5-6.41,0,0,8.09-35.59,8.17-35.93-.39,1.81,17,6.71,18.52,7.14a160.28,160.28,0,0,0,41.61,6.31c12.86.12,32.69-1.88,39.82-14.44a16.53,16.53,0,0,0,1.14-13.62c-3.33-9.13-13.34-12-22-13.47-13.92-2.41-28.43-4-41.78-8.81-12.75-4.63-24.59-12.53-32.41-23.77-7.32-10.54-10.82-23.59-8.47-36.33.18-1,.4-2,.65-3.05a58.06,58.06,0,0,1,26.87-35.45,68.17,68.17,0,0,1,33.68-9c11.7-.09,23.25,2.37,34.75,4.15,6.67,1,13.49,1.93,20,3.51,5.41,1.31,11.28,2.68,15.42,6.66l.09.09Z"/></svg>